<?xml version="1.0" encoding="UTF-8" standalone="no"?><svg xmlns="http://www.w3.org/2000/svg" xmlns:xlink="http://www.w3.org/1999/xlink" contentScriptType="application/ecmascript" contentStyleType="text/css" height="304px" preserveAspectRatio="none" style="width:311px;height:304px;background:#FFFFFF;" version="1.1" viewBox="0 0 311 304" width="311px" zoomAndPan="magnify"><defs><filter height="300%" id="f1vtbydnohnjdj" width="300%" x="-1" y="-1"><feGaussianBlur result="blurOut" stdDeviation="2.0"/><feColorMatrix in="blurOut" result="blurOut2" type="matrix" values="0 0 0 0 0 0 0 0 0 0 0 0 0 0 0 0 0 0 .4 0"/><feOffset dx="4.0" dy="4.0" in="blurOut2" result="blurOut3"/><feBlend in="SourceGraphic" in2="blurOut3" mode="normal"/></filter></defs><g><rect fill="#FEFECE" filter="url(#f1vtbydnohnjdj)" height="36.4883" rx="12.5" ry="12.5" style="stroke:#A80036;stroke-width:1.5;" width="140" x="10" y="132.9766"/><text fill="#000000" font-family="sans-serif" font-size="14" lengthAdjust="spacing" textLength="120" x="20" y="156.5117">Knownledge Base</text><rect fill="#FEFECE" filter="url(#f1vtbydnohnjdj)" height="36.4883" rx="12.5" ry="12.5" style="stroke:#A80036;stroke-width:1.5;" width="66" x="200" y="20"/><text fill="#000000" font-family="sans-serif" font-size="14" lengthAdjust="spacing" textLength="46" x="210" y="43.5352">Github</text><path d="M150,151.2207 L160,151.2207 C175,151.2207 175,38.2441 190,38.2441 L200,38.2441 " fill="none" style="stroke:#A80036;stroke-width:1.0;"/><rect fill="#FEFECE" filter="url(#f1vtbydnohnjdj)" height="36.4883" rx="12.5" ry="12.5" style="stroke:#A80036;stroke-width:1.5;" width="73" x="200" y="76.4883"/><text fill="#000000" font-family="sans-serif" font-size="14" lengthAdjust="spacing" textLength="53" x="210" y="100.0234">VSCode</text><path d="M150,151.2207 L160,151.2207 C175,151.2207 175,94.7324 190,94.7324 L200,94.7324 " fill="none" style="stroke:#A80036;stroke-width:1.0;"/><rect fill="#FEFECE" filter="url(#f1vtbydnohnjdj)" height="36.4883" rx="12.5" ry="12.5" style="stroke:#A80036;stroke-width:1.5;" width="92" x="200" y="132.9766"/><text fill="#000000" font-family="sans-serif" font-size="14" lengthAdjust="spacing" textLength="72" x="210" y="156.5117">Markdown</text><path d="M150,151.2207 L160,151.2207 C175,151.2207 175,151.2207 190,151.2207 L200,151.2207 " fill="none" style="stroke:#A80036;stroke-width:1.0;"/><rect fill="#FEFECE" filter="url(#f1vtbydnohnjdj)" height="36.4883" rx="12.5" ry="12.5" style="stroke:#A80036;stroke-width:1.5;" width="83" x="200" y="189.4648"/><text fill="#000000" font-family="sans-serif" font-size="14" lengthAdjust="spacing" textLength="63" x="210" y="213">PlantUML</text><path d="M150,151.2207 L160,151.2207 C175,151.2207 175,207.709 190,207.709 L200,207.709 " fill="none" style="stroke:#A80036;stroke-width:1.0;"/><rect fill="#FEFECE" filter="url(#f1vtbydnohnjdj)" height="36.4883" rx="12.5" ry="12.5" style="stroke:#A80036;stroke-width:1.5;" width="73" x="200" y="245.9531"/><text fill="#000000" font-family="sans-serif" font-size="14" lengthAdjust="spacing" textLength="53" x="210" y="269.4883">LICEcap</text><path d="M150,151.2207 L160,151.2207 C175,151.2207 175,264.1973 190,264.1973 L200,264.1973 " fill="none" style="stroke:#A80036;stroke-width:1.0;"/><!--MD5=[2e498b75e647f402dd2c37882095897e]
@startmindmap
* Knownledge Base
** Github
** VSCode
** Markdown
** PlantUML
** LICEcap
@endmindmap

PlantUML version 1.2022.0(Wed Jan 12 00:16:42 HKT 2022)
(GPL source distribution)
Java Runtime: OpenJDK Runtime Environment
JVM: OpenJDK 64-Bit Server VM
Default Encoding: UTF-8
Language: en
Country: GB
--></g></svg>