<?xml version="1.0" encoding="UTF-8" standalone="no"?><svg xmlns="http://www.w3.org/2000/svg" xmlns:xlink="http://www.w3.org/1999/xlink" contentScriptType="application/ecmascript" contentStyleType="text/css" height="304px" preserveAspectRatio="none" style="width:270px;height:304px;background:#FFFFFF;" version="1.1" viewBox="0 0 270 304" width="270px" zoomAndPan="magnify"><defs><filter height="300%" id="f6vne018ftwa7" width="300%" x="-1" y="-1"><feGaussianBlur result="blurOut" stdDeviation="2.0"/><feColorMatrix in="blurOut" result="blurOut2" type="matrix" values="0 0 0 0 0 0 0 0 0 0 0 0 0 0 0 0 0 0 .4 0"/><feOffset dx="4.0" dy="4.0" in="blurOut2" result="blurOut3"/><feBlend in="SourceGraphic" in2="blurOut3" mode="normal"/></filter></defs><g><rect fill="#FEFECE" filter="url(#f6vne018ftwa7)" height="36.4883" rx="12.5" ry="12.5" style="stroke:#A80036;stroke-width:1.5;" width="99" x="10" y="132.9766"/><text fill="#000000" font-family="sans-serif" font-size="14" lengthAdjust="spacing" textLength="79" x="20" y="156.5117">Project Wiki</text><rect fill="#FEFECE" filter="url(#f6vne018ftwa7)" height="36.4883" rx="12.5" ry="12.5" style="stroke:#A80036;stroke-width:1.5;" width="66" x="159" y="20"/><text fill="#000000" font-family="sans-serif" font-size="14" lengthAdjust="spacing" textLength="46" x="169" y="43.5352">Github</text><path d="M109,151.2207 L119,151.2207 C134,151.2207 134,38.2441 149,38.2441 L159,38.2441 " fill="none" style="stroke:#A80036;stroke-width:1.0;"/><rect fill="#FEFECE" filter="url(#f6vne018ftwa7)" height="36.4883" rx="12.5" ry="12.5" style="stroke:#A80036;stroke-width:1.5;" width="73" x="159" y="76.4883"/><text fill="#000000" font-family="sans-serif" font-size="14" lengthAdjust="spacing" textLength="53" x="169" y="100.0234">VSCode</text><path d="M109,151.2207 L119,151.2207 C134,151.2207 134,94.7324 149,94.7324 L159,94.7324 " fill="none" style="stroke:#A80036;stroke-width:1.0;"/><rect fill="#FEFECE" filter="url(#f6vne018ftwa7)" height="36.4883" rx="12.5" ry="12.5" style="stroke:#A80036;stroke-width:1.5;" width="92" x="159" y="132.9766"/><text fill="#000000" font-family="sans-serif" font-size="14" lengthAdjust="spacing" textLength="72" x="169" y="156.5117">Markdown</text><path d="M109,151.2207 L119,151.2207 C134,151.2207 134,151.2207 149,151.2207 L159,151.2207 " fill="none" style="stroke:#A80036;stroke-width:1.0;"/><rect fill="#FEFECE" filter="url(#f6vne018ftwa7)" height="36.4883" rx="12.5" ry="12.5" style="stroke:#A80036;stroke-width:1.5;" width="83" x="159" y="189.4648"/><text fill="#000000" font-family="sans-serif" font-size="14" lengthAdjust="spacing" textLength="63" x="169" y="213">PlantUML</text><path d="M109,151.2207 L119,151.2207 C134,151.2207 134,207.709 149,207.709 L159,207.709 " fill="none" style="stroke:#A80036;stroke-width:1.0;"/><rect fill="#FEFECE" filter="url(#f6vne018ftwa7)" height="36.4883" rx="12.5" ry="12.5" style="stroke:#A80036;stroke-width:1.5;" width="73" x="159" y="245.9531"/><text fill="#000000" font-family="sans-serif" font-size="14" lengthAdjust="spacing" textLength="53" x="169" y="269.4883">LICEcap</text><path d="M109,151.2207 L119,151.2207 C134,151.2207 134,264.1973 149,264.1973 L159,264.1973 " fill="none" style="stroke:#A80036;stroke-width:1.0;"/><!--MD5=[3b417b95f32351a67be4bf7101cb4e92]
@startmindmap
* Project Wiki
** Github
** VSCode
** Markdown
** PlantUML
** LICEcap
@endmindmap

PlantUML version 1.2022.0(Wed Jan 12 00:16:42 HKT 2022)
(GPL source distribution)
Java Runtime: OpenJDK Runtime Environment
JVM: OpenJDK 64-Bit Server VM
Default Encoding: UTF-8
Language: en
Country: GB
--></g></svg>