<?xml version="1.0" encoding="UTF-8" standalone="no"?><svg xmlns="http://www.w3.org/2000/svg" xmlns:xlink="http://www.w3.org/1999/xlink" contentScriptType="application/ecmascript" contentStyleType="text/css" height="473px" preserveAspectRatio="none" style="width:402px;height:473px;background:#FFFFFF;" version="1.1" viewBox="0 0 402 473" width="402px" zoomAndPan="magnify"><defs><filter height="300%" id="fm82mqfdvr3d9" width="300%" x="-1" y="-1"><feGaussianBlur result="blurOut" stdDeviation="2.0"/><feColorMatrix in="blurOut" result="blurOut2" type="matrix" values="0 0 0 0 0 0 0 0 0 0 0 0 0 0 0 0 0 0 .4 0"/><feOffset dx="4.0" dy="4.0" in="blurOut2" result="blurOut3"/><feBlend in="SourceGraphic" in2="blurOut3" mode="normal"/></filter></defs><g><rect fill="#FEFECE" filter="url(#fm82mqfdvr3d9)" height="36.4883" rx="12.5" ry="12.5" style="stroke:#A80036;stroke-width:1.5;" width="98" x="10" y="217.709"/><text fill="#000000" font-family="sans-serif" font-size="14" lengthAdjust="spacing" textLength="78" x="20" y="241.2441">Project Run</text><rect fill="#FEFECE" filter="url(#fm82mqfdvr3d9)" height="36.4883" rx="12.5" ry="12.5" style="stroke:#A80036;stroke-width:1.5;" width="80" x="158" y="104.7324"/><text fill="#000000" font-family="sans-serif" font-size="14" lengthAdjust="spacing" textLength="60" x="168" y="128.2676">Software</text><rect fill="#FEFECE" filter="url(#fm82mqfdvr3d9)" height="36.4883" rx="12.5" ry="12.5" style="stroke:#A80036;stroke-width:1.5;" width="93" x="288" y="20"/><text fill="#000000" font-family="sans-serif" font-size="14" lengthAdjust="spacing" textLength="73" x="298" y="43.5352">Omniverse</text><path d="M238,122.9766 L248,122.9766 C263,122.9766 263,38.2441 278,38.2441 L288,38.2441 " fill="none" style="stroke:#A80036;stroke-width:1.0;"/><rect fill="#FEFECE" filter="url(#fm82mqfdvr3d9)" height="36.4883" rx="12.5" ry="12.5" style="stroke:#A80036;stroke-width:1.5;" width="74" x="288" y="76.4883"/><text fill="#000000" font-family="sans-serif" font-size="14" lengthAdjust="spacing" textLength="54" x="298" y="100.0234">Houdini</text><path d="M238,122.9766 L248,122.9766 C263,122.9766 263,94.7324 278,94.7324 L288,94.7324 " fill="none" style="stroke:#A80036;stroke-width:1.0;"/><rect fill="#FEFECE" filter="url(#fm82mqfdvr3d9)" height="36.4883" rx="12.5" ry="12.5" style="stroke:#A80036;stroke-width:1.5;" width="94" x="288" y="132.9766"/><text fill="#000000" font-family="sans-serif" font-size="14" lengthAdjust="spacing" textLength="74" x="298" y="156.5117">Photoshop</text><path d="M238,122.9766 L248,122.9766 C263,122.9766 263,151.2207 278,151.2207 L288,151.2207 " fill="none" style="stroke:#A80036;stroke-width:1.0;"/><rect fill="#FEFECE" filter="url(#fm82mqfdvr3d9)" height="36.4883" rx="12.5" ry="12.5" style="stroke:#A80036;stroke-width:1.5;" width="72" x="288" y="189.4648"/><text fill="#000000" font-family="sans-serif" font-size="14" lengthAdjust="spacing" textLength="52" x="298" y="213">Blender</text><path d="M238,122.9766 L248,122.9766 C263,122.9766 263,207.709 278,207.709 L288,207.709 " fill="none" style="stroke:#A80036;stroke-width:1.0;"/><path d="M108,235.9531 L118,235.9531 C133,235.9531 133,122.9766 148,122.9766 L158,122.9766 " fill="none" style="stroke:#A80036;stroke-width:1.0;"/><rect fill="#FEFECE" filter="url(#fm82mqfdvr3d9)" height="36.4883" rx="12.5" ry="12.5" style="stroke:#A80036;stroke-width:1.5;" width="86" x="158" y="330.6855"/><text fill="#000000" font-family="sans-serif" font-size="14" lengthAdjust="spacing" textLength="66" x="168" y="354.2207">Hardware</text><rect fill="#FEFECE" filter="url(#fm82mqfdvr3d9)" height="36.4883" rx="12.5" ry="12.5" style="stroke:#A80036;stroke-width:1.5;" width="47" x="294" y="245.9531"/><text fill="#000000" font-family="sans-serif" font-size="14" lengthAdjust="spacing" textLength="27" x="304" y="269.4883">RTX</text><path d="M244,348.9297 L254,348.9297 C269,348.9297 269,264.1973 284,264.1973 L294,264.1973 " fill="none" style="stroke:#A80036;stroke-width:1.0;"/><rect fill="#FEFECE" filter="url(#fm82mqfdvr3d9)" height="36.4883" rx="12.5" ry="12.5" style="stroke:#A80036;stroke-width:1.5;" width="89" x="294" y="302.4414"/><text fill="#000000" font-family="sans-serif" font-size="14" lengthAdjust="spacing" textLength="69" x="304" y="325.9766">6 Displays</text><path d="M244,348.9297 L254,348.9297 C269,348.9297 269,320.6855 284,320.6855 L294,320.6855 " fill="none" style="stroke:#A80036;stroke-width:1.0;"/><rect fill="#FEFECE" filter="url(#fm82mqfdvr3d9)" height="36.4883" rx="12.5" ry="12.5" style="stroke:#A80036;stroke-width:1.5;" width="88" x="294" y="358.9297"/><text fill="#000000" font-family="sans-serif" font-size="14" lengthAdjust="spacing" textLength="68" x="304" y="382.4648">3D Mouse</text><path d="M244,348.9297 L254,348.9297 C269,348.9297 269,377.1738 284,377.1738 L294,377.1738 " fill="none" style="stroke:#A80036;stroke-width:1.0;"/><rect fill="#FEFECE" filter="url(#fm82mqfdvr3d9)" height="36.4883" rx="12.5" ry="12.5" style="stroke:#A80036;stroke-width:1.5;" width="38" x="294" y="415.418"/><text fill="#000000" font-family="sans-serif" font-size="14" lengthAdjust="spacing" textLength="18" x="304" y="438.9531">VR</text><path d="M244,348.9297 L254,348.9297 C269,348.9297 269,433.6621 284,433.6621 L294,433.6621 " fill="none" style="stroke:#A80036;stroke-width:1.0;"/><path d="M108,235.9531 L118,235.9531 C133,235.9531 133,348.9297 148,348.9297 L158,348.9297 " fill="none" style="stroke:#A80036;stroke-width:1.0;"/><!--MD5=[4f1dc5faa8c5500a489601d402d15add]
@startmindmap
* Project Run
** Software
*** Omniverse
*** Houdini
*** Photoshop
*** Blender
** Hardware
*** RTX
*** 6 Displays
*** 3D Mouse
*** VR
@endmindmap

PlantUML version 1.2022.0(Wed Jan 12 00:16:42 HKT 2022)
(GPL source distribution)
Java Runtime: OpenJDK Runtime Environment
JVM: OpenJDK 64-Bit Server VM
Default Encoding: UTF-8
Language: en
Country: GB
--></g></svg>